<?xml version="1.0" encoding="iso-8859-1"?>
<!-- Generator: Adobe Illustrator 19.0.0, SVG Export Plug-In . SVG Version: 6.00 Build 0)  -->
<svg version="1.1" id="Capa_1" xmlns="http://www.w3.org/2000/svg" xmlns:xlink="http://www.w3.org/1999/xlink" x="0px" y="0px"
	 viewBox="0 0 512 512" style="enable-background:new 0 0 512 512;" xml:space="preserve">
<path style="fill:#53CEEA;" d="M511.999,255.999c0,94.824-51.555,177.611-128.167,221.842c-0.94,0.543-1.891,1.087-2.842,1.609
	c-14.075,7.899-28.975,14.503-44.533,19.644c-4.671,1.557-9.415,2.967-14.2,4.242c-21.128,5.653-43.342,8.662-66.257,8.662
	s-45.129-3.009-66.257-8.662c-15.37-4.096-30.166-9.603-44.241-16.353c-5.914-2.832-11.692-5.883-17.345-9.143
	C51.556,433.6,0.001,350.824,0.001,255.999C0.001,114.615,114.615,0,256,0S511.999,114.615,511.999,255.999z"/>
<g>
	<path style="fill:#F9CEBB;" d="M195.793,203.41v284.536c0,5.945-2.299,11.358-6.05,15.391
		c-21.817-5.82-42.475-14.461-61.586-25.495V203.41c0-18.672,15.141-33.813,33.823-33.813
		C180.653,169.597,195.793,184.738,195.793,203.41z"/>
	<path style="fill:#F9CEBB;" d="M383.833,203.41v274.431c-19.101,11.034-39.769,19.675-61.576,25.495
		c-3.751-4.033-6.05-9.446-6.05-15.391V203.41c0-18.672,15.141-33.813,33.813-33.813
		C368.692,169.597,383.833,184.738,383.833,203.41z"/>
</g>
<g>
	<path style="fill:#F4B298;" d="M195.793,472.857v14.848c0-7.419-6.019-13.437-13.437-13.437h-23.218
		c-3.783,0-7.199,1.526-9.676,4.002c-2.257,2.267-3.73,5.319-3.96,8.714c-5.914-2.832-11.692-5.883-17.345-9.143V203.41
		c0-18.672,15.13-33.813,33.823-33.813c2.978,0,5.883,0.397,8.641,1.128c-14.482,3.824-25.161,17.021-25.161,32.684v256.01h36.895
		C189.775,459.42,195.793,465.438,195.793,472.857z"/>
	<path style="fill:#F4B298;" d="M383.833,472.857v4.984c-0.94,0.543-1.891,1.087-2.842,1.609c-2.445-3.156-6.28-5.183-10.585-5.183
		h-23.218c-3.772,0-7.199,1.526-9.676,4.002c-2.476,2.476-4.002,5.904-4.002,9.676c0,4.054,1.066,7.858,2.947,11.149
		c-4.671,1.557-9.415,2.967-14.2,4.242c-3.751-4.033-6.05-9.446-6.05-15.391V203.41c0-18.672,15.12-33.813,33.813-33.813
		c2.988,0,5.893,0.397,8.641,1.128c-14.482,3.824-25.151,17.021-25.151,32.684v256.01h36.895
		C377.824,459.42,383.833,465.438,383.833,472.857z"/>
</g>
<path style="fill:#F9F9F9;" d="M383.832,195.303V21.63H128.154v173.672c0,32.675,21.419,60.352,50.982,69.746
	c6.995,2.231,14.458,3.436,22.2,3.436h109.325c7.731,0,15.194-1.205,22.188-3.436C362.412,255.655,383.832,227.977,383.832,195.303z
	"/>
<path style="fill:#F4B298;" d="M332.85,265.047c-7.14-35.921-38.832-62.985-76.851-62.985s-69.723,27.064-76.863,62.985
	c6.995,2.231,14.458,3.436,22.2,3.436h109.325C318.392,268.484,325.855,267.279,332.85,265.047z"/>
<path style="fill:#E8E8E8;" d="M227.724,268.479h-26.392c-40.413,0-73.174-32.762-73.174-73.174V21.631h26.392v173.673
	C154.55,235.717,187.311,268.479,227.724,268.479z"/>
<circle style="fill:#F4B298;" cx="403.382" cy="369.705" r="35.913"/>
<circle style="fill:#D88F7C;" cx="397.091" cy="363.728" r="23.643"/>
<circle style="fill:#EAA48C;" cx="108.606" cy="369.705" r="35.913"/>
<circle style="fill:#D88F7C;" cx="114.896" cy="363.728" r="23.643"/>
<path style="fill:#F9CEBB;" d="M403.501,362.552c0-81.465-66.041-127.024-147.506-127.024s-147.506,45.559-147.506,127.024
	s66.041,147.506,147.506,147.506S403.501,444.017,403.501,362.552z"/>
<path style="fill:#F4B298;" d="M256,235.532c-81.467,0-147.511,45.561-147.511,127.02c0,81.014,65.304,146.771,146.139,147.502
	c-57.904-1.024-104.613-66.666-104.613-147.502C150.015,281.093,197.464,235.532,256,235.532z"/>
<g>
	<path style="fill:#39B7DD;" d="M337.638,362.182v26.483c0,6.907-5.6,12.506-12.506,12.506l0,0c-6.907,0-12.506-5.6-12.506-12.506
		v-26.483c0-6.907,5.599-12.506,12.506-12.506l0,0C332.038,349.675,337.638,355.275,337.638,362.182z"/>
	<path style="fill:#39B7DD;" d="M199.364,362.182v26.483c0,6.907-5.6,12.506-12.506,12.506l0,0c-6.907,0-12.506-5.6-12.506-12.506
		v-26.483c0-6.907,5.6-12.506,12.506-12.506l0,0C193.765,349.675,199.364,355.275,199.364,362.182z"/>
</g>
<path style="fill:#53506D;" d="M213.03,322.802c-6.511,0-11.42-6.046-9.941-12.386c5.605-24.034,27.164-41.937,52.905-41.937
	c25.741,0,47.3,17.903,52.905,41.937c1.479,6.34-3.429,12.386-9.94,12.386H213.03z"/>
<path style="fill:#FFFFFF;" d="M268.643,306.772L268.643,306.772c-3.541,0-6.411,2.87-6.411,6.411v9.618h12.824v-9.618
	C275.055,309.643,272.184,306.772,268.643,306.772z"/>
<g>
	<path style="fill:#F4B298;" d="M269.798,373.564h-27.607c-4.918,0-8.906-3.987-8.906-8.906l0,0c0-4.918,3.987-8.906,8.906-8.906
		h27.607c4.918,0,8.906,3.987,8.906,8.906l0,0C278.704,369.576,274.716,373.564,269.798,373.564z"/>
	<path style="fill:#F4B298;" d="M255.995,392.126L255.995,392.126c-5.656,0-10.241-4.585-10.241-10.241v-17.227h20.483v17.226
		C266.236,387.54,261.651,392.126,255.995,392.126z"/>
</g>
<path style="fill:#53506D;" d="M255.995,510.057c-36.955-16.715-37.557-69.953-4.45-85.733c47.644-22.709,65.01,39.185,65.01,39.185
	s-31.169-20.483-40.075,0c-8.906,20.483,27.096,39.107,47.834,29.795l-0.056,0.048C305.388,509.328,280.11,515.514,255.995,510.057
	L255.995,510.057z"/>
<path style="fill:#393751;" d="M269.356,424.325c3.82-1.817,7.445-3.099,10.883-3.901c-8.006-2.101-17.517-1.425-28.694,3.901
	c-33.111,15.781-32.505,69.017,4.452,85.734c8.727,1.977,17.606,2.422,26.28,1.434c-2.832-0.321-5.655-0.801-8.469-1.434
	C236.85,493.342,236.245,440.106,269.356,424.325z"/>
<g>
	<ellipse style="fill:#FCB8D2;" cx="348.995" cy="330.866" rx="20.41" ry="12.414"/>
	<path style="fill:#FCB8D2;" d="M183.4,330.87c0-6.858-9.137-12.414-20.403-12.414c-2.814,0-5.495,0.347-7.926,0.98
		c-7.338,1.87-12.485,6.287-12.485,11.434c0,4.176,3.393,7.882,8.603,10.125c3.331,1.443,7.409,2.288,11.808,2.288
		C174.263,343.285,183.4,337.728,183.4,330.87z"/>
</g>
<path style="fill:#EF9BBE;" d="M155.071,319.436c-7.338,1.87-12.485,6.287-12.485,11.434c0,4.176,3.393,7.882,8.603,10.125
	C152.043,333.426,153.343,326.239,155.071,319.436z"/>
<path style="fill:#F4B298;" d="M268.657,259.207c-8.279-2.337-17.045-2.337-25.324,0c-2.194,0.62-4.496-0.551-5.302-2.684
	c-0.01-0.028-0.021-0.055-0.031-0.084c-0.907-2.401,0.413-5.095,2.883-5.794c9.88-2.795,20.345-2.795,30.226,0
	c2.47,0.699,3.79,3.393,2.883,5.794c-0.01,0.028-0.021,0.055-0.031,0.084C273.153,258.657,270.851,259.827,268.657,259.207z"/>
<path style="fill:#F9CEBB;" d="M75.376,94.653v18.526c0,12.298-9.969,22.269-22.269,22.269l0,0
	c-12.298,0-22.269-9.969-22.269-22.269V94.653v-48.36c0-13.62,11.041-24.662,24.662-24.662h19.875h151.749V59.44
	c0,19.449-15.765,35.214-35.214,35.214H75.376V94.653z"/>
<path style="fill:#F4B298;" d="M88.572,41.425H68.697c-13.62,0-24.662,11.041-24.662,24.662v48.36v18.526
	c0,0.183,0.023,0.36,0.027,0.542c-7.787-3.469-13.223-11.262-13.223-20.337V94.652V46.293c0-13.62,11.041-24.662,24.662-24.662
	h19.875h151.749v19.795H88.572V41.425z"/>
<path style="fill:#F9CEBB;" d="M436.613,94.653v18.526c0,12.298,9.969,22.269,22.268,22.269l0,0
	c12.298,0,22.268-9.969,22.268-22.269V94.653v-48.36c0-13.62-11.041-24.662-24.662-24.662h-19.875H284.863V59.44
	c0,19.449,15.765,35.214,35.214,35.214h116.536V94.653z"/>
<g>
	<path style="fill:#F4B298;" d="M464.458,134.75c-9.605-2.488-16.689-11.2-16.689-21.575V94.656h-11.155v18.519
		c0,12.305,9.974,22.278,22.278,22.278C460.81,135.452,462.672,135.206,464.458,134.75z"/>
	<path style="fill:#F4B298;" d="M481.153,65.26V46.295c0-13.621-11.045-24.666-24.666-24.666H284.868v18.965h171.619
		C470.109,40.595,481.153,51.64,481.153,65.26z"/>
</g>
<rect x="227.128" y="21.631" style="fill:#E8E8E8;" width="57.741" height="19.795"/>
<g>
</g>
<g>
</g>
<g>
</g>
<g>
</g>
<g>
</g>
<g>
</g>
<g>
</g>
<g>
</g>
<g>
</g>
<g>
</g>
<g>
</g>
<g>
</g>
<g>
</g>
<g>
</g>
<g>
</g>
</svg>
