<?xml version="1.0" encoding="iso-8859-1"?>
<!-- Generator: Adobe Illustrator 19.0.0, SVG Export Plug-In . SVG Version: 6.00 Build 0)  -->
<svg version="1.1" id="Capa_1" xmlns="http://www.w3.org/2000/svg" xmlns:xlink="http://www.w3.org/1999/xlink" x="0px" y="0px"
	 viewBox="0 0 512.001 512.001" style="enable-background:new 0 0 512.001 512.001;" xml:space="preserve">
<path style="fill:#54254D;" d="M506.076,188.393c-16.117-49.602-61.967-82.93-114.09-82.93c-5.908,0-11.804,0.44-17.643,1.313
	c-4.116-24.76-15.88-47.546-34.073-65.5C317.676,18.978,287.749,6.7,256.002,6.7L166.01,256.001l89.991,214.924
	c22.259,21.772,52.586,34.375,84.124,34.377c25.441,0,49.796-7.926,70.433-22.921c25.686-18.661,42.679-46.187,47.851-77.508
	c4.165-25.215,0.289-50.563-10.932-73.011c22.27-11.566,40.303-29.796,51.753-52.641
	C513.455,250.843,515.886,218.586,506.076,188.393z"/>
<path style="fill:#6E3089;" d="M171.732,41.276c-18.192,17.953-29.957,40.74-34.073,65.5c-5.839-0.873-11.734-1.313-17.643-1.313
	c-52.123,0-97.972,33.328-114.09,82.931c-9.81,30.192-7.379,62.449,6.844,90.827c11.45,22.846,29.482,41.075,51.753,52.641
	c-11.221,22.447-15.097,47.796-10.932,73.011c5.174,31.32,22.167,58.846,47.851,77.508c20.639,14.995,44.994,22.921,70.432,22.921
	c31.537,0,61.865-12.603,84.125-34.377V6.7C224.255,6.7,194.327,18.978,171.732,41.276z"/>
<path style="fill:#9340B6;" d="M477.548,197.662c-12.09-37.205-46.475-62.203-85.561-62.203c-8.978,0-17.921,1.358-26.583,4.037
	l-19.144,5.92l-0.284-20.036c-0.695-48.9-41.056-88.684-89.973-88.684l-29.997,219.304l29.997,167.205l12.008,16.043
	c17.148,22.912,43.434,36.054,72.118,36.056c19.064,0,37.319-5.944,52.801-17.192c39.575-28.752,48.844-84.664,20.661-124.634
	l-11.548-16.376l18.968-6.463C467.299,294.864,492.662,244.185,477.548,197.662z"/>
<path style="fill:#A757B5;" d="M166.027,125.38l-0.284,20.036l-19.144-5.92c-8.662-2.679-17.605-4.037-26.583-4.037
	c-39.087,0-73.472,24.998-85.561,62.204c-15.115,46.521,10.248,97.201,56.539,112.973l18.968,6.463l-11.548,16.376
	C70.23,373.447,79.5,429.359,119.075,458.11c15.481,11.248,33.739,17.192,52.802,17.192c28.682,0,54.968-13.142,72.117-36.056
	l12.008-16.043V36.697C207.084,36.697,166.723,76.48,166.027,125.38z"/>
<path style="fill:#6E3089;" d="M449.023,206.932c-10.223-31.462-44.136-48.741-75.597-38.518c-4.021,1.307-7.924,3.052-11.601,5.185
	l-62.281,36.119l15.105-70.39c0.894-4.159,1.347-8.41,1.347-12.639c0-33.081-26.913-59.994-59.994-59.994l-29.997,189.307
	l29.997,87.73l29.155,65.826c1.722,3.89,3.854,7.595,6.339,11.016c19.444,26.762,57.038,32.717,83.8,13.273
	c26.763-19.444,32.717-57.038,13.273-83.8c-2.485-3.421-5.35-6.593-8.515-9.431l-53.597-48.071l71.613-7.386
	c4.232-0.436,8.415-1.319,12.436-2.625C441.967,272.307,459.246,238.394,449.023,206.932z"/>
<path style="fill:#9340B6;" d="M196.007,126.688c0,4.229,0.453,8.479,1.346,12.636l15.106,70.394l-62.278-36.118
	c-3.679-2.135-7.582-3.88-11.604-5.187c-31.462-10.223-65.375,7.057-75.597,38.518c-10.222,31.462,7.057,65.375,38.518,75.597
	c4.021,1.307,8.204,2.19,12.433,2.625l71.616,7.386l-53.595,48.068c-3.167,2.84-6.032,6.012-8.518,9.433
	c-19.444,26.762-13.491,64.356,13.273,83.8c26.762,19.444,64.356,13.49,83.8-13.273c2.485-3.421,4.618-7.126,6.338-11.013
	l29.156-65.828V66.694C222.921,66.694,196.007,93.607,196.007,126.688z"/>
<path style="fill:#54254D;" d="M256.002,209.655l-19.998,59.994l19.998,59.994c33.134,0,59.994-26.86,59.994-59.994
	S289.136,209.655,256.002,209.655z"/>
<path style="fill:#6E3089;" d="M196.007,269.649c0,33.134,26.86,59.994,59.994,59.994V209.655
	C222.867,209.655,196.007,236.516,196.007,269.649z"/>
<g>
</g>
<g>
</g>
<g>
</g>
<g>
</g>
<g>
</g>
<g>
</g>
<g>
</g>
<g>
</g>
<g>
</g>
<g>
</g>
<g>
</g>
<g>
</g>
<g>
</g>
<g>
</g>
<g>
</g>
</svg>
